<svg width="24" height="24" viewBox="0 0 24 24" fill="none" xmlns="http://www.w3.org/2000/svg">
<path fill-rule="evenodd" clip-rule="evenodd" d="M18.8412 5.90435C18.9815 5.99502 19.145 6.04318 19.3121 6.04303C19.4939 6.04256 19.6709 5.9848 19.8179 5.87795C19.965 5.77109 20.0746 5.6206 20.1312 5.44786C20.1618 5.55588 20.1777 5.66754 20.1784 5.77982C20.1798 6.00921 20.1166 6.23437 19.9961 6.42954C19.8755 6.6247 19.7024 6.78198 19.4967 6.88338C19.3757 6.94301 19.2462 6.9819 19.1137 6.99909V8.67909C19.1137 8.75723 19.0827 8.83217 19.0274 8.88743C18.9722 8.94268 18.8972 8.97373 18.8191 8.97373C18.7409 8.97373 18.666 8.94268 18.6107 8.88743C18.5555 8.83217 18.5244 8.75723 18.5244 8.67909V6.93024C18.4106 6.88718 18.3032 6.82715 18.2062 6.75166C18.0252 6.61078 17.8875 6.42177 17.8089 6.20628C17.7302 5.99078 17.7138 5.7575 17.7616 5.53313C17.8093 5.30876 17.9193 5.10236 18.0789 4.93756C18.2384 4.77276 18.4412 4.65621 18.6639 4.60126C18.5529 4.72612 18.4804 4.88041 18.4551 5.04555C18.4298 5.21069 18.4527 5.37962 18.5212 5.532C18.5898 5.68437 18.7009 5.81368 18.8412 5.90435ZM14.0361 11.2346C13.8688 11.2347 13.7051 11.1864 13.5647 11.0955C13.4243 11.0046 13.3132 10.8749 13.2448 10.7223C13.1765 10.5696 13.1538 10.4004 13.1796 10.2351C13.2053 10.0698 13.2783 9.91554 13.3898 9.79086C13.1514 9.84777 12.9355 9.97476 12.7698 10.1555C12.6042 10.3362 12.4965 10.5623 12.4605 10.8048C12.4245 11.0473 12.462 11.295 12.568 11.516C12.674 11.737 12.8438 11.9212 13.0554 12.0449C13.1203 12.0828 13.1882 12.1145 13.2582 12.1398V13.8706C13.2587 13.9486 13.29 14.0233 13.3451 14.0784C13.4002 14.1336 13.4749 14.1648 13.5529 14.1653C13.5916 14.1653 13.6299 14.1577 13.6656 14.1429C13.7014 14.128 13.7339 14.1063 13.7612 14.079C13.7886 14.0516 13.8103 14.0191 13.8251 13.9834C13.8399 13.9476 13.8475 13.9093 13.8475 13.8706V12.2005C14.0585 12.1705 14.2587 12.086 14.4278 11.9546C14.6214 11.8043 14.7656 11.5994 14.8418 11.3664C14.9179 11.1334 14.9226 10.883 14.8552 10.6473C14.7972 10.8186 14.687 10.9673 14.5401 11.0727C14.3932 11.1781 14.2169 11.2347 14.0361 11.2346Z" fill="#FFB958"/>
<path d="M18.827 7.70679C19.1974 7.70679 19.5526 7.85393 19.8145 8.11584C20.0764 8.37775 20.2235 8.73298 20.2235 9.10338V18.414H17.4304V9.10338C17.4304 8.73298 17.5775 8.37775 17.8394 8.11584C18.1013 7.85393 18.4566 7.70679 18.827 7.70679V7.70679ZM13.6354 12.918C14.5252 12.918 15.3785 13.2715 16.0077 13.9006C16.6369 14.5298 16.9904 15.3832 16.9904 16.273V19.6299H10.2765V16.273C10.2765 15.832 10.3634 15.3955 10.5322 14.9882C10.7011 14.5809 10.9486 14.2108 11.2605 13.8992C11.5725 13.5877 11.9428 13.3406 12.3503 13.1722C12.7578 13.0039 13.1945 12.9175 13.6354 12.918Z" fill="#C585D8"/>
<path d="M14.0852 4.65627L12.9341 4.54627C12.8981 4.54314 12.8636 4.53011 12.8345 4.50862C12.8054 4.48713 12.7827 4.45802 12.7691 4.42449L12.3566 3.42468C12.3425 3.38741 12.3174 3.35532 12.2846 3.33268C12.2517 3.31004 12.2128 3.29791 12.173 3.29791C12.1331 3.29791 12.0942 3.31004 12.0614 3.33268C12.0286 3.35532 12.0034 3.38741 11.9893 3.42468L11.5807 4.42449C11.5671 4.45802 11.5445 4.48713 11.5154 4.50862C11.4863 4.53011 11.4518 4.54314 11.4157 4.54627L10.2647 4.65627C10.2259 4.65925 10.1888 4.67371 10.1582 4.69781C10.1276 4.7219 10.1048 4.75455 10.0928 4.7916C10.0808 4.82866 10.0801 4.86844 10.0908 4.9059C10.1015 4.94336 10.123 4.97681 10.1527 5.00198L11.019 5.76412C11.0466 5.78782 11.0671 5.81873 11.0782 5.85342C11.0893 5.88811 11.0906 5.9252 11.0818 5.96055L10.8225 7.03107C10.8124 7.06905 10.8139 7.10919 10.8268 7.14631C10.8397 7.18344 10.8634 7.21584 10.895 7.23932C10.9265 7.2628 10.9643 7.27629 11.0036 7.27803C11.0428 7.27978 11.0817 7.2697 11.1152 7.24911L12.0757 6.68143C12.1056 6.66419 12.1395 6.65512 12.174 6.65512C12.2084 6.65512 12.2423 6.66419 12.2722 6.68143L13.2327 7.24714C13.2662 7.26841 13.3053 7.27903 13.345 7.27761C13.3846 7.2762 13.4229 7.26281 13.4548 7.23921C13.4867 7.21561 13.5107 7.1829 13.5236 7.1454C13.5366 7.1079 13.5379 7.06736 13.5273 7.02911L13.27 5.95858C13.2613 5.92323 13.2625 5.88614 13.2736 5.85146C13.2847 5.81677 13.3052 5.78585 13.3329 5.76216L14.205 5.00198C14.235 4.97645 14.2566 4.9425 14.267 4.90454C14.2775 4.86658 14.2762 4.82635 14.2635 4.78909C14.2508 4.75182 14.2272 4.71923 14.1958 4.69555C14.1643 4.67187 14.1265 4.65818 14.0872 4.65627H14.0852Z" fill="#FFE9AA"/>
<path opacity="0.5" d="M11.0367 5.78375L11.0818 5.58732C11.0906 5.55197 11.0894 5.51488 11.0783 5.4802C11.0672 5.44551 11.0466 5.41459 11.019 5.3909L10.1979 4.6759C10.1683 4.68982 10.1427 4.7109 10.1233 4.73723C10.1039 4.76356 10.0914 4.79431 10.0869 4.82669C10.0825 4.85908 10.0861 4.89207 10.0976 4.92267C10.1091 4.95328 10.128 4.98054 10.1527 5.00197L11.019 5.76411C11.0254 5.77015 11.0313 5.77672 11.0367 5.78375V5.78375ZM14.1559 4.67787L13.3368 5.39679C13.3092 5.42049 13.2886 5.4514 13.2775 5.48609C13.2664 5.52078 13.2652 5.55787 13.274 5.59322L13.3191 5.78964C13.3245 5.78262 13.3304 5.77605 13.3368 5.77L14.205 5.00197C14.2291 4.98021 14.2475 4.95281 14.2584 4.92223C14.2693 4.89164 14.2725 4.85882 14.2676 4.82671C14.2628 4.7946 14.25 4.76419 14.2305 4.73822C14.211 4.71224 14.1854 4.69151 14.1559 4.67787V4.67787ZM13.4861 6.83856C13.456 6.87371 13.4145 6.89712 13.3689 6.90466C13.3232 6.91221 13.2764 6.90341 13.2366 6.87981L12.2761 6.31607C12.2462 6.29883 12.2124 6.28975 12.1779 6.28975C12.1434 6.28975 12.1095 6.29883 12.0797 6.31607L11.1152 6.87785C11.0757 6.90167 11.029 6.91079 10.9833 6.90361C10.9377 6.89642 10.8961 6.87339 10.8658 6.83856L10.8206 7.03499C10.8104 7.07296 10.8119 7.11311 10.8248 7.15023C10.8377 7.18736 10.8615 7.21975 10.893 7.24323C10.9245 7.26672 10.9624 7.2802 11.0016 7.28195C11.0409 7.28369 11.0798 7.27362 11.1133 7.25302L12.0757 6.68142C12.1056 6.66418 12.1395 6.65511 12.174 6.65511C12.2084 6.65511 12.2423 6.66418 12.2722 6.68142L13.2327 7.24713C13.2662 7.26839 13.3053 7.27902 13.345 7.2776C13.3846 7.27618 13.4229 7.26279 13.4548 7.23919C13.4867 7.2156 13.5107 7.18289 13.5237 7.14539C13.5366 7.10789 13.5379 7.06734 13.5273 7.0291L13.4861 6.83856Z" fill="#FEC72A"/>
<path d="M10.1861 9.99712L9.52614 9.93426C9.50547 9.93219 9.48576 9.92451 9.46914 9.91204C9.45252 9.89958 9.43963 9.88281 9.43185 9.86355L9.19614 9.29194C9.18746 9.27123 9.17286 9.25354 9.15416 9.2411C9.13547 9.22865 9.11351 9.22202 9.09105 9.22202C9.06859 9.22202 9.04663 9.22865 9.02794 9.2411C9.00924 9.25354 8.99464 9.27123 8.98596 9.29194L8.75221 9.86355C8.74482 9.88306 8.73204 9.90007 8.71534 9.9126C8.69865 9.92512 8.67873 9.93263 8.65793 9.93426L7.99793 9.99712C7.97632 9.99959 7.95587 10.0082 7.93899 10.0219C7.92212 10.0357 7.90953 10.0539 7.90271 10.0746C7.89589 10.0953 7.89513 10.1174 7.90052 10.1385C7.90591 10.1596 7.91722 10.1787 7.93311 10.1935L8.43007 10.6296C8.44575 10.6432 8.45749 10.6608 8.46405 10.6805C8.47062 10.7002 8.47177 10.7213 8.4674 10.7416L8.31222 11.3544C8.30703 11.376 8.30827 11.3986 8.31578 11.4195C8.32328 11.4404 8.33673 11.4587 8.35447 11.472C8.37221 11.4854 8.39346 11.4933 8.41561 11.4947C8.43777 11.4962 8.45987 11.4911 8.47918 11.4801L9.02918 11.156C9.04697 11.1464 9.06689 11.1414 9.08712 11.1414C9.10736 11.1414 9.12727 11.1464 9.14507 11.156L9.69506 11.4801C9.71438 11.4911 9.73647 11.4962 9.75863 11.4947C9.78078 11.4933 9.80204 11.4854 9.81977 11.472C9.83751 11.4587 9.85096 11.4404 9.85847 11.4195C9.86597 11.3986 9.86721 11.376 9.86203 11.3544L9.71471 10.7435C9.70988 10.7234 9.71062 10.7024 9.71685 10.6827C9.72308 10.6629 9.73456 10.6453 9.75006 10.6316L10.247 10.1955C10.263 10.1805 10.2743 10.1613 10.2796 10.14C10.2849 10.1188 10.2839 10.0965 10.2769 10.0758C10.2699 10.0551 10.257 10.0368 10.2399 10.0232C10.2227 10.0096 10.202 10.0012 10.1802 9.99908L10.1861 9.99712Z" fill="#FED150"/>
<path opacity="0.5" d="M8.43989 10.6414L8.46739 10.5334C8.47333 10.5119 8.47297 10.4892 8.46635 10.468C8.45973 10.4467 8.44713 10.4278 8.43007 10.4135L7.9606 9.99908C7.94227 10.0069 7.92627 10.0194 7.91416 10.0352C7.90205 10.0511 7.89424 10.0698 7.89147 10.0895C7.8887 10.1093 7.89108 10.1294 7.89838 10.148C7.90567 10.1666 7.91763 10.1829 7.93311 10.1955L8.43007 10.6316L8.43989 10.6414ZM10.2254 10.0089L9.75595 10.4135C9.74044 10.4272 9.72896 10.4449 9.72273 10.4646C9.71651 10.4843 9.71576 10.5054 9.72059 10.5255L9.74809 10.6355V10.6237L10.245 10.1877C10.2575 10.1756 10.267 10.1608 10.2729 10.1445C10.2788 10.1282 10.2808 10.1107 10.2789 10.0935C10.277 10.0762 10.2712 10.0597 10.262 10.045C10.2527 10.0303 10.2402 10.018 10.2254 10.0089V10.0089ZM9.84237 11.2464C9.82528 11.2662 9.80177 11.2795 9.77593 11.2838C9.75009 11.2881 9.72355 11.2832 9.70095 11.27L9.15095 10.9459C9.13315 10.9362 9.11324 10.9312 9.09301 10.9312C9.07277 10.9312 9.05286 10.9362 9.03506 10.9459L8.48506 11.27C8.46246 11.2832 8.43592 11.2881 8.41008 11.2838C8.38424 11.2795 8.36073 11.2662 8.34364 11.2464L8.3181 11.3544C8.31292 11.376 8.31415 11.3987 8.32166 11.4195C8.32917 11.4404 8.34261 11.4587 8.36035 11.472C8.37809 11.4854 8.39934 11.4933 8.4215 11.4947C8.44366 11.4962 8.46575 11.4911 8.48506 11.4801L9.03506 11.156C9.05286 11.1464 9.07277 11.1414 9.09301 11.1414C9.11324 11.1414 9.13315 11.1464 9.15095 11.156L9.70095 11.4801C9.72026 11.4911 9.74236 11.4962 9.76451 11.4947C9.78667 11.4933 9.80792 11.4854 9.82566 11.472C9.8434 11.4587 9.85684 11.4404 9.86435 11.4195C9.87186 11.3987 9.87309 11.376 9.86791 11.3544L9.84237 11.2464Z" fill="#FED150"/>
<path d="M14.8925 18.8363C12.7271 18.7817 10.6419 18.0052 8.96817 16.6301C7.29442 15.2551 6.12799 13.3603 5.65407 11.2466C5.18015 9.13295 5.42592 6.92154 6.35234 4.96349C7.27876 3.00545 8.83275 1.413 10.7676 0.438993C10.8174 0.415774 10.8572 0.375485 10.8798 0.325427C10.9025 0.275369 10.9064 0.218855 10.891 0.166127C10.8756 0.113399 10.8417 0.0679459 10.7957 0.0380062C10.7496 0.0080666 10.6943 -0.00437878 10.6399 0.00292565C8.43416 0.273043 6.34619 1.14819 4.60705 2.53151C2.86791 3.91482 1.54542 5.75236 0.785964 7.84076C0.0265036 9.92915 -0.140316 12.187 0.303968 14.3643C0.748252 16.5416 1.78631 18.5536 3.30326 20.1775C4.82021 21.8014 6.7569 22.9739 8.89897 23.5652C11.041 24.1566 13.305 24.1437 15.4402 23.5281C17.5754 22.9124 19.4986 21.718 20.997 20.077C22.4955 18.436 23.5106 16.4124 23.9301 14.2301C23.9411 14.1763 23.9324 14.1204 23.9056 14.0725C23.8789 14.0245 23.8359 13.9877 23.7844 13.9687C23.7329 13.9497 23.6763 13.9498 23.6248 13.9689C23.5734 13.9881 23.5305 14.025 23.5039 14.073C22.6229 15.5621 21.3602 16.7888 19.8462 17.6262C18.3323 18.4636 16.6221 18.8814 14.8925 18.8363V18.8363Z" fill="#FFEDB8"/>
<path opacity="0.4" d="M1.1937 6.86411C1.45167 8.70552 2.18139 10.449 3.312 11.9251C4.44262 13.4013 5.93571 14.56 7.64632 15.2889C6.71709 14.165 6.05324 12.846 5.70417 11.4301C5.35509 10.0142 5.32977 8.5378 5.63009 7.11076C5.93041 5.68373 6.54864 4.34277 7.43878 3.18767C8.32892 2.03256 9.46807 1.09304 10.7715 0.438987C10.8221 0.415928 10.8626 0.375297 10.8856 0.324629C10.9085 0.273962 10.9123 0.216695 10.8962 0.163449C10.8801 0.110203 10.8453 0.0645911 10.7982 0.0350719C10.751 0.00555272 10.6948 -0.00587081 10.6399 0.00291977C8.61279 0.251934 6.68233 1.01229 5.02991 2.21251C3.37749 3.41274 2.0574 5.01342 1.1937 6.86411V6.86411Z" fill="#FED150"/>
<path opacity="0.5" d="M23.5785 13.9983C22.7289 16.672 20.9721 18.965 18.6117 20.4813C16.2514 21.9976 13.4356 22.6419 10.6507 22.303C7.86579 21.9641 5.28668 20.6633 3.35882 18.6252C1.43097 16.5871 0.275415 13.9397 0.0917538 11.1403C0.0760397 11.3819 0.0622898 11.6235 0.0622898 11.8691C0.0430487 14.8714 1.14597 17.7726 3.15482 20.004C5.16367 22.2353 7.93355 23.6358 10.9214 23.9309C13.9093 24.2259 16.8996 23.3943 19.3061 21.599C21.7126 19.8037 23.3617 17.1743 23.9301 14.2262C23.9368 14.1825 23.9307 14.1377 23.9125 14.0974C23.8944 14.057 23.865 14.0228 23.8279 13.9987C23.7908 13.9746 23.7475 13.9618 23.7033 13.9617C23.659 13.9617 23.6157 13.9744 23.5785 13.9983V13.9983ZM5.42671 7.78732C5.42671 7.96214 5.44242 8.13696 5.45617 8.30981C5.59503 6.65281 6.1566 5.05912 7.0872 3.6811C8.0178 2.30308 9.28632 1.1868 10.7715 0.438987C10.8221 0.415928 10.8626 0.375297 10.8856 0.324629C10.9085 0.273962 10.9123 0.216695 10.8962 0.163449C10.8801 0.110203 10.8453 0.0645911 10.7982 0.0350719C10.751 0.00555272 10.6948 -0.00587081 10.6399 0.00291977C9.88671 0.0946205 9.14408 0.258406 8.42222 0.492023C7.43907 1.42984 6.66427 2.56405 6.14818 3.82092C5.6321 5.0778 5.38628 6.42921 5.42671 7.78732V7.78732Z" fill="#FED150"/>
<path d="M17.173 9.87924H20.4828C20.7591 9.87924 20.8973 10.0174 20.8973 10.2937V10.2917C20.8973 10.568 20.7591 10.7062 20.4828 10.7062H17.173C16.8967 10.7062 16.7586 10.568 16.7586 10.2917V10.2937C16.7586 10.0174 16.8967 9.87924 17.173 9.87924Z" fill="#EB3D72"/>
<path d="M4.80794 7.49069C4.91205 7.32962 5.32455 6.42803 4.53098 5.91928C3.73742 5.41053 3.32099 6.11571 3.32099 6.11571C3.27869 6.18148 3.24976 6.25495 3.23584 6.33191C3.22193 6.40887 3.22331 6.48782 3.23991 6.56424C3.25651 6.64067 3.288 6.71307 3.33258 6.77733C3.37716 6.84159 3.43396 6.89643 3.49974 6.93874C3.56552 6.98104 3.63899 7.00997 3.71595 7.02389C3.7929 7.0378 3.87185 7.03641 3.94828 7.01982C4.0247 7.00322 4.09711 6.97173 4.16137 6.92715C4.22562 6.88257 4.28047 6.82576 4.32277 6.75999C4.32277 6.75999 4.37384 6.89945 4.16956 7.19213C3.96527 7.4848 3.58028 7.47891 3.15992 7.2098C2.73957 6.9407 2.05797 5.66785 3.14421 3.95698C3.18153 3.89805 3.22278 3.84698 3.26207 3.79198C3.18202 3.74269 3.09193 3.71199 2.99845 3.70214C2.90496 3.69228 2.81046 3.70351 2.72189 3.73501C2.62518 3.77185 2.5367 3.82742 2.46153 3.89855C2.38636 3.96967 2.32598 4.05495 2.28386 4.14947C1.55119 5.65803 1.75351 7.14302 2.78082 7.80301C3.92795 8.53176 4.70384 7.65176 4.80794 7.49069V7.49069ZM17.2084 21.8318C17.3596 21.769 18.0923 21.329 17.778 20.5806C17.4637 19.8322 16.8253 20.1268 16.8253 20.1268C16.759 20.1495 16.6981 20.1856 16.6462 20.2328C16.5944 20.28 16.5528 20.3373 16.524 20.4012C16.4952 20.4651 16.4798 20.5342 16.4788 20.6043C16.4777 20.6744 16.4911 20.744 16.518 20.8087C16.5449 20.8734 16.5848 20.932 16.6352 20.9806C16.6857 21.0293 16.7455 21.0672 16.8111 21.0918C16.8768 21.1165 16.9467 21.1274 17.0168 21.1239C17.0868 21.1205 17.1553 21.1027 17.2182 21.0716C17.2182 21.0716 17.1868 21.1974 16.9 21.3054C16.6132 21.4134 16.3421 21.217 16.1693 20.8241C15.9964 20.4313 16.1378 19.1938 17.7407 18.5063C17.7957 18.4827 17.8507 18.467 17.9057 18.4474C17.8922 18.4203 17.8771 18.3941 17.8605 18.3688C17.761 18.2289 17.6115 18.1326 17.443 18.0997C17.2745 18.0668 17.0998 18.0998 16.955 18.192C15.7391 18.9149 15.2107 20.1033 15.6114 21.0579C16.075 22.1422 17.0552 21.8966 17.2084 21.8318ZM6.55811 18.8167C6.41864 18.7302 5.6349 18.3865 5.20669 19.0779C4.77848 19.7693 5.38937 20.117 5.38937 20.117C5.44593 20.1617 5.51126 20.1939 5.58111 20.2116C5.65096 20.2293 5.72376 20.232 5.79475 20.2197C5.86574 20.2074 5.93334 20.1802 5.99313 20.14C6.05292 20.0998 6.10356 20.0474 6.14175 19.9863C6.17994 19.9252 6.20482 19.8567 6.21477 19.7854C6.22471 19.714 6.21951 19.6413 6.19948 19.5721C6.17946 19.5029 6.14507 19.4387 6.09856 19.3837C6.05205 19.3286 5.99446 19.284 5.92954 19.2527C5.92954 19.2527 6.04936 19.2056 6.30472 19.3765C6.56007 19.5474 6.55811 19.8833 6.33222 20.2486C6.10633 20.614 5.02009 21.217 3.53117 20.3056C3.4801 20.2742 3.43492 20.2388 3.38778 20.2054C3.37231 20.2317 3.35916 20.2593 3.34849 20.2879C3.29153 20.4509 3.29955 20.6296 3.37087 20.7869C3.4422 20.9442 3.57135 21.068 3.73153 21.1325C5.02401 21.7041 6.29882 21.4468 6.84686 20.5668C7.4656 19.5611 6.69757 18.9051 6.55811 18.8167V18.8167ZM10.1016 16.2729H17.1868H10.1016ZM17.1868 16.764H10.1016C9.97141 16.764 9.8465 16.7123 9.75441 16.6202C9.66232 16.5281 9.61058 16.4032 9.61058 16.2729C9.61058 16.1427 9.66232 16.0178 9.75441 15.9257C9.8465 15.8336 9.97141 15.7819 10.1016 15.7819H17.1868C17.317 15.7819 17.4419 15.8336 17.534 15.9257C17.6261 16.0178 17.6778 16.1427 17.6778 16.2729C17.6778 16.4032 17.6261 16.5281 17.534 16.6202C17.4419 16.7123 17.317 16.764 17.1868 16.764V16.764Z" fill="#EB3D72"/>
<path opacity="0.4" d="M5.28723 16.0097C5.28723 16.1026 5.30552 16.1946 5.34106 16.2804C5.3766 16.3662 5.42868 16.4441 5.49435 16.5098C5.56001 16.5754 5.63797 16.6275 5.72376 16.6631C5.80955 16.6986 5.90151 16.7169 5.99437 16.7169C6.08723 16.7169 6.17918 16.6986 6.26498 16.6631C6.35077 16.6275 6.42873 16.5754 6.49439 16.5098C6.56005 16.4441 6.61214 16.3662 6.64768 16.2804C6.68321 16.1946 6.7015 16.1026 6.7015 16.0097C6.7015 15.8222 6.627 15.6423 6.49439 15.5097C6.36178 15.3771 6.18191 15.3026 5.99437 15.3026C5.80682 15.3026 5.62696 15.3771 5.49435 15.5097C5.36173 15.6423 5.28723 15.8222 5.28723 16.0097V16.0097Z" fill="#FED150"/>
<path opacity="0.4" d="M7.6424 19.7104C7.6424 19.898 7.7169 20.0778 7.84951 20.2105C7.98212 20.3431 8.16199 20.4176 8.34953 20.4176C8.53708 20.4176 8.71694 20.3431 8.84955 20.2105C8.98217 20.0778 9.05667 19.898 9.05667 19.7104C9.05667 19.5229 8.98217 19.343 8.84955 19.2104C8.71694 19.0778 8.53708 19.0033 8.34953 19.0033C8.16199 19.0033 7.98212 19.0778 7.84951 19.2104C7.7169 19.343 7.6424 19.5229 7.6424 19.7104V19.7104Z" fill="#FED150"/>
<path opacity="0.4" d="M0.578888 11.0657C0.578888 11.1585 0.597179 11.2505 0.632715 11.3363C0.668252 11.4221 0.72034 11.5 0.786003 11.5657C0.851667 11.6313 0.929621 11.6834 1.01542 11.719C1.10121 11.7545 1.19316 11.7728 1.28602 11.7728C1.37889 11.7728 1.47084 11.7545 1.55663 11.719C1.64243 11.6834 1.72038 11.6313 1.78605 11.5657C1.85171 11.5 1.9038 11.4221 1.93933 11.3363C1.97487 11.2505 1.99316 11.1585 1.99316 11.0657C1.99316 10.8781 1.91866 10.6982 1.78605 10.5656C1.65343 10.433 1.47357 10.3585 1.28602 10.3585C1.09848 10.3585 0.918617 10.433 0.786003 10.5656C0.65339 10.6982 0.578888 10.8781 0.578888 11.0657V11.0657Z" fill="#FED150"/>
<path opacity="0.5" d="M12.4509 20.4824C12.4509 20.6699 12.5254 20.8498 12.658 20.9824C12.7907 21.115 12.9705 21.1895 13.1581 21.1895C13.3456 21.1895 13.5255 21.115 13.6581 20.9824C13.7907 20.8498 13.8652 20.6699 13.8652 20.4824C13.8652 20.2948 13.7907 20.115 13.6581 19.9824C13.5255 19.8497 13.3456 19.7752 13.1581 19.7752C12.9705 19.7752 12.7907 19.8497 12.658 19.9824C12.5254 20.115 12.4509 20.2948 12.4509 20.4824V20.4824Z" fill="#FED150"/>
<path opacity="0.5" d="M9.96808 19.3392C9.96806 19.4003 9.9801 19.4609 10.0035 19.5174C10.0269 19.5738 10.0612 19.6252 10.1044 19.6684C10.1476 19.7117 10.1989 19.746 10.2554 19.7694C10.3119 19.7928 10.3725 19.8048 10.4336 19.8048C10.4948 19.8048 10.5553 19.7928 10.6118 19.7694C10.6683 19.746 10.7196 19.7117 10.7628 19.6684C10.8061 19.6252 10.8403 19.5738 10.8637 19.5174C10.8871 19.4609 10.8992 19.4003 10.8991 19.3392C10.8992 19.278 10.8871 19.2175 10.8637 19.161C10.8403 19.1045 10.8061 19.0532 10.7628 19.0099C10.7196 18.9667 10.6683 18.9324 10.6118 18.909C10.5553 18.8856 10.4948 18.8735 10.4336 18.8735C10.3725 18.8735 10.3119 18.8856 10.2554 18.909C10.1989 18.9324 10.1476 18.9667 10.1044 19.0099C10.0612 19.0532 10.0269 19.1045 10.0035 19.161C9.9801 19.2175 9.96806 19.278 9.96808 19.3392V19.3392Z" fill="#FED150"/>
<path opacity="0.5" d="M3.03619 16.1669C3.03618 16.228 3.04821 16.2886 3.0716 16.3451C3.09499 16.4015 3.12928 16.4529 3.17251 16.4961C3.21574 16.5394 3.26706 16.5737 3.32355 16.5971C3.38004 16.6205 3.44058 16.6325 3.50173 16.6325C3.56287 16.6325 3.62341 16.6205 3.6799 16.5971C3.73639 16.5737 3.78771 16.5394 3.83094 16.4961C3.87417 16.4529 3.90846 16.4015 3.93185 16.3451C3.95524 16.2886 3.96727 16.228 3.96726 16.1669C3.96727 16.1057 3.95524 16.0452 3.93185 15.9887C3.90846 15.9322 3.87417 15.8809 3.83094 15.8376C3.78771 15.7944 3.73639 15.7601 3.6799 15.7367C3.62341 15.7133 3.56287 15.7012 3.50173 15.7012C3.44058 15.7012 3.38004 15.7133 3.32355 15.7367C3.26706 15.7601 3.21574 15.7944 3.17251 15.8376C3.12928 15.8809 3.09499 15.9322 3.0716 15.9887C3.04821 16.0452 3.03618 16.1057 3.03619 16.1669V16.1669Z" fill="#FED150"/>
<path opacity="0.4" d="M2.65512 14.843C2.65512 14.9607 2.70189 15.0736 2.78514 15.1569C2.8684 15.2401 2.98131 15.2869 3.09905 15.2869C3.21678 15.2869 3.3297 15.2401 3.41295 15.1569C3.4962 15.0736 3.54297 14.9607 3.54297 14.843C3.54297 14.7252 3.4962 14.6123 3.41295 14.5291C3.3297 14.4458 3.21678 14.399 3.09905 14.399C2.98131 14.399 2.8684 14.4458 2.78514 14.5291C2.70189 14.6123 2.65512 14.7252 2.65512 14.843V14.843Z" fill="#FED150"/>
<path opacity="0.4" d="M10.6968 21.2563C10.6968 21.374 10.7436 21.487 10.8269 21.5702C10.9101 21.6535 11.023 21.7002 11.1408 21.7002C11.2585 21.7002 11.3714 21.6535 11.4547 21.5702C11.5379 21.487 11.5847 21.374 11.5847 21.2563C11.5847 21.1386 11.5379 21.0257 11.4547 20.9424C11.3714 20.8591 11.2585 20.8124 11.1408 20.8124C11.023 20.8124 10.9101 20.8591 10.8269 20.9424C10.7436 21.0257 10.6968 21.1386 10.6968 21.2563V21.2563Z" fill="#FED150"/>
</svg>
